# xmcd CD database file
#
# Track frame offsets:
#	150
#	27820
#	46633
#	64893
#	78345
#	98623
#	116163
#	129795
#	142863
#	156925
#
# Disc length: 2149 seconds
#
# Revision: 1
# Processed by: cddbd v1.4PL0 Copyright (c) Steve Scherf et al.
# Submitted via: CDex 1.40Release
#
DISCID=7208630a
DTITLE=Loy and Altomare - Portobello
DYEAR=1973
DGENRE=Pop
TTITLE0=Checco e Massimo
TTITLE1=Un Ubriaco
TTITLE2=Zia Campagna
TTITLE3=Il Saggio, il Fiume e il Monte
TTITLE4=Insieme a te tutto il giorno
TTITLE5=La corte dei miracoli
TTITLE6=Topi
TTITLE7=Il Matto
TTITLE8=Un bambino dentro l'acqua
TTITLE9=Checco e Massimo (strumentale)
EXTD=YEAR: 1973 ID3G: 13
EXTT0=
EXTT1=
EXTT2=
EXTT3=
EXTT4=
EXTT5=
EXTT6=
EXTT7=
EXTT8=
EXTT9=
PLAYORDER=
